HIERARCHY
ROOT Hips
{
  OFFSET 0 0 0
  CHANNELS 6 Xposition Yposition Zposition Zrotation Yrotation Xrotation
  JOINT LeftThigh
  {
    OFFSET 8.409438 0 -5.917753
    CHANNELS 3 Zrotation Yrotation Xrotation
    JOINT LeftLeg
    {
      OFFSET 0 0 -42.358652
      CHANNELS 3 Zrotation Yrotation Xrotation
      JOINT LeftFoot
      {
        OFFSET 0 0 -39.357303
        CHANNELS 3 Zrotation Yrotation Xrotation
      }
    }
  }
  JOINT RightThigh
  {
    OFFSET -8.409438 0 -5.917753
    CHANNELS 3 Zrotation Yrotation Xrotation
    JOINT RightLeg
    {
      OFFSET 0 0 -42.358652
      CHANNELS 3 Zrotation Yrotation Xrotation
      JOINT RightFoot
      {
        OFFSET 0 0 -39.357303
        CHANNELS 3 Zrotation Yrotation Xrotation
      }
    }
  }
  JOINT SpineLow
  {
    OFFSET 0 0 4.719101
    CHANNELS 3 Zrotation Yrotation Xrotation
    JOINT SpineMid
    {
      OFFSET 0 0 12.899191
      CHANNELS 3 Zrotation Yrotation Xrotation
      JOINT Chest
      {
        OFFSET 0 0 12.899191
        CHANNELS 3 Zrotation Yrotation Xrotation
        JOINT LeftShoulder
        {
          OFFSET 7.550562 1.41573 9.438202
          CHANNELS 3 Zrotation Yrotation Xrotation
          JOINT LeftArm
          {
            OFFSET 9.155056 0 4.247191
            CHANNELS 3 Zrotation Yrotation Xrotation
            JOINT LeftForearm
            {
              OFFSET 0 0 25.771955
              CHANNELS 3 Zrotation Yrotation Xrotation
              JOINT LeftHand
              {
                OFFSET 0 0 25.197169
                CHANNELS 3 Zrotation Yrotation Xrotation
              }
            }
          }
        }
        JOINT RightShoulder
        {
          OFFSET -7.550562 1.41573 9.438202
          CHANNELS 3 Zrotation Yrotation Xrotation
          JOINT RightArm
          {
            OFFSET -9.155056 0 4.247191
            CHANNELS 3 Zrotation Yrotation Xrotation
            JOINT RightForearm
            {
              OFFSET 0 0 -25.771955
              CHANNELS 3 Zrotation Yrotation Xrotation
              JOINT RightHand
              {
                OFFSET 0 0 -25.197169
                CHANNELS 3 Zrotation Yrotation Xrotation
              }
            }
          }
        }
        JOINT Neck
        {
          OFFSET 0 0 15.101124
          CHANNELS 3 Zrotation Yrotation Xrotation
          JOINT Head
          {
            OFFSET 0 0 11.325843
            CHANNELS 3 Zrotation Yrotation Xrotation
            End Site
            {
              OFFSET 0 0 14.157303
            }
          }
        }
      }
    }
  }
}
MOTION
Frames: 7
Frame Time: 0.0
0.0  93.25843  0.0  8.188459  16.994192  -77.866563  -5.466734  -11.329968  -15.375834  -9.536214  0.991164  12.200411  2.073256  -0.431985  2.168763  -26.557594  6.640023  -15.207194  -12.935905  7.837228  10.195789  -1.758276  -0.077578  -0.811568  2.483475  2.254728  -0.661218  6.744329  6.223129  -1.577529  6.744329  6.223129  -1.577529  2.180692  3.573422  7.615613  -176.705185  20.238878  -157.509694  -9.269915  5.665184  99.126836  57.116665  -23.443234  9.785139  25.427354  -22.427067  25.827048  129.8095  75.768519  107.756069  10.738357  39.974807  -30.390726  95.285574  -33.34269  8.327403  -21.338279  -4.367175  -1.207721  -16.004634  -3.237906  -1.059737  
0.0  93.25843  0.0  8.390529  17.467764  -77.541957  -5.546772  -11.175736  -16.220866  -9.945629  1.599406  13.176805  2.171373  -0.409079  2.129471  -26.925763  6.384904  -16.063378  -13.144122  8.905904  11.237918  -1.702693  0.052116  -0.777658  2.601738  2.296422  -0.654676  7.068659  6.338753  -1.543979  7.068659  6.338753  -1.543978  2.430147  3.283031  7.58148  -177.094309  19.920492  -158.538032  -9.341649  6.58772  99.439145  56.060743  -23.782476  10.526379  25.778253  -22.619861  25.212987  129.889592  77.023392  108.242447  11.640714  38.296782  -29.208348  95.132249  -33.119189  8.10274  -22.073279  -4.438555  -1.181148  -16.555296  -3.291358  -1.047758  
0.0  93.25843  0.0  8.571989  17.933594  -77.102779  -5.829443  -10.992442  -17.465034  -10.204801  2.215008  14.438603  2.468458  -0.436129  2.246533  -27.233691  5.980437  -17.067275  -13.306956  10.11168  12.365069  -1.728856  0.23372  -0.778007  2.695858  2.348927  -0.664543  7.325185  6.485082  -1.55614  7.325185  6.485082  -1.55614  2.767593  2.84198  7.466799  -177.633248  19.486012  -159.42241  -9.365454  7.238321  99.77449  55.455645  -23.932573  11.340933  26.284196  -22.819662  24.558927  128.920753  78.433024  107.755388  12.12262  36.902707  -28.361106  94.838109  -33.099433  8.102234  -22.670506  -4.558429  -1.138248  -17.002431  -3.382128  -1.024457  
0.0  93.25843  0.0  8.722095  18.09572  -76.698731  -5.232893  -10.565244  -18.414359  -10.874158  2.680894  15.469971  2.544387  -0.443013  2.277812  -26.866936  5.563201  -17.915743  -13.565813  11.44651  13.373219  -1.677187  0.47513  -0.768243  2.824197  2.376438  -0.685239  7.674716  6.565181  -1.596905  7.674715  6.565181  -1.596905  3.235551  2.554226  7.508429  -178.277907  19.023029  -160.017564  -9.297111  7.494404  100.137064  55.078481  -23.957495  12.328831  26.412146  -22.717019  23.981199  126.493253  79.773537  105.449075  12.223609  35.696814  -27.871641  94.194227  -33.189229  8.542051  -23.303074  -4.598307  -1.143387  -17.476555  -3.411023  -1.034684  
0.0  93.25843  0.0  8.93657  18.355121  -76.305039  -4.720686  -10.060118  -19.294482  -11.471572  2.98758  16.552573  2.373438  -0.382133  2.293296  -26.33424  5.142943  -18.755108  -13.511642  12.893285  14.496711  -1.843934  0.568907  -0.787463  2.84691  2.407704  -0.733557  7.731801  6.656602  -1.723306  7.731801  6.656602  -1.723306  4.222302  2.299954  7.783226  -179.689124  18.953931  -159.671226  -10.076407  7.230454  99.645548  54.656214  -24.102758  13.495048  27.860436  -23.102648  23.929865  124.825293  81.814807  104.852249  11.841813  34.549479  -27.921523  93.017704  -33.221539  9.524127  -23.511174  -4.565341  -1.033139  -17.631783  -3.390217  -0.952232  
0.0  93.25843  0.0  9.162905  18.407798  -76.179744  -4.227705  -9.468447  -19.871016  -12.143739  3.217011  17.608894  2.099855  -0.253789  2.256774  -25.909239  4.868935  -19.52048  -13.246568  14.308211  15.636178  -1.632321  0.734444  -0.89048  2.895061  2.426745  -0.7482  7.862124  6.711393  -1.756259  7.862124  6.711394  -1.756259  5.099443  2.193115  8.18724  -179.987447  18.679308  -159.675506  -9.703198  6.824364  100.143237  53.984257  -24.458888  14.730874  28.096096  -23.201344  23.592053  120.744571  83.226679  100.791224  10.868634  33.370636  -28.681923  91.363477  -32.977882  10.840009  -23.858998  -4.55755  -1.014622  -17.892391  -3.384675  -0.940686  
0.0  93.25843  0.0  9.833194  19.485038  -75.383733  -4.962311  -8.735549  -20.899843  -13.006878  3.438822  18.563853  1.978356  -0.122534  2.230157  -26.801938  4.543793  -20.858291  -12.520196  15.785137  16.843061  -1.544849  0.547721  -0.90299  2.716631  2.510638  -0.797144  7.366693  6.941566  -1.899531  7.366692  6.941566  -1.899531  7.596381  1.326797  8.434889  178.287565  18.076065  -159.582313  -9.273353  6.375607  100.759934  53.011203  -25.025222  15.978614  28.444452  -23.29278  23.163159  114.431718  84.777316  94.475686  9.193977  32.062219  -30.257905  89.474972  -32.257894  12.169893  -24.069519  -4.613395  -1.06729  -18.050459  -3.424317  -0.984057  
